<svg width="96" height="60" viewBox="0 0 96 60" fill="none" xmlns="http://www.w3.org/2000/svg">
<path d="M5.4699 41.5972H0V18.1007H5.4699V28.3385L13.2987 18.1007H19.8626L10.8714 28.9427L20.5805 41.5972H13.6406L5.4699 30.4196V41.5972Z" fill="#DC4FFF"/>
<path d="M24.1148 31.2252L22.8499 27.5664C24.4909 26.5818 26.394 26.0895 28.5591 26.0895C30.7927 26.0895 32.4109 26.6154 33.4137 27.6671C34.4393 28.7189 34.9521 30.3301 34.9521 32.5007V41.5972H30.5078V40.221C29.7557 41.2727 28.411 41.7986 26.4737 41.7986C25.0151 41.7986 23.8414 41.3734 22.9525 40.5231C22.0636 39.6727 21.6192 38.5091 21.6192 37.0322C21.6192 35.4434 22.1206 34.2126 23.1234 33.3399C24.149 32.4671 25.4937 32.0308 27.1575 32.0308C28.4566 32.0308 29.4594 32.3105 30.1659 32.8699C30.2799 31.1469 29.5734 30.2853 28.0463 30.2853C26.9979 30.2853 25.6874 30.5986 24.1148 31.2252ZM28.2173 37.6028C29.1289 37.6028 29.7785 37.3455 30.1659 36.8308V35.8909C29.6873 35.5552 29.0378 35.3874 28.2173 35.3874C27.7842 35.3874 27.431 35.4881 27.1575 35.6895C26.884 35.8909 26.7472 36.1706 26.7472 36.5287C26.7472 36.8643 26.884 37.1329 27.1575 37.3343C27.431 37.5133 27.7842 37.6028 28.2173 37.6028Z" fill="#DC4FFF"/>
<path d="M40.1432 41.5972H39.562V18.1007H40.0406C41.0662 18.1007 42.2058 18.0895 43.4593 18.0671C43.9379 18.0671 44.4621 18.0671 45.0319 18.0671C45.6245 18.0448 46.0803 18.0336 46.3994 18.0336C46.7184 18.0112 46.9577 18 47.1173 18C51.6072 18 54.9689 19.0965 57.2024 21.2895C59.436 23.4825 60.5527 26.2685 60.5527 29.6476C60.5527 33.1161 59.3562 35.9916 56.9631 38.2741C54.5928 40.5343 51.2197 41.6643 46.8438 41.6643C45.9549 41.6643 44.9635 41.6531 43.8695 41.6308C42.7756 41.6084 41.5334 41.5972 40.1432 41.5972ZM47.0489 23.035C46.16 23.035 45.4877 23.0685 45.0319 23.1357V36.5622C45.67 36.607 46.331 36.6294 47.0147 36.6294C49.4306 36.6294 51.3223 36.014 52.6897 34.7832C54.0572 33.5524 54.741 31.8406 54.741 29.6476C54.741 27.5664 54.0458 25.9441 52.6556 24.7804C51.2653 23.6168 49.3964 23.035 47.0489 23.035Z" fill="#DC4FFF"/>
<path d="M75.2723 36.7301L76.674 40.2881C75.1242 41.4294 73.13 42 70.6913 42C68.1842 42 66.1558 41.2727 64.606 39.8182C63.1018 38.3636 62.3497 36.4392 62.3497 34.0448C62.3497 31.7622 63.1132 29.8713 64.6402 28.372C66.19 26.8503 68.207 26.0895 70.6913 26.0895C72.7197 26.0895 74.4746 26.7608 75.9561 28.1035C77.4147 29.4014 78.144 31.1021 78.144 33.2056C78.144 34.2126 78.0415 35.0517 77.8363 35.7231H67.6487C68.1045 37.1105 69.301 37.8042 71.2383 37.8042C72.7425 37.8042 74.0872 37.4462 75.2723 36.7301ZM70.5203 30.2853C69.0161 30.2853 68.0019 30.979 67.4777 32.3664H73.016C73.016 31.7846 72.7881 31.2923 72.3323 30.8895C71.8764 30.4867 71.2725 30.2853 70.5203 30.2853Z" fill="#DC4FFF"/>
<path d="M89.7438 26.4923H95.6581L90.872 33.6755L96 41.5972H89.7438L87.0772 36.8308L84.2397 41.5972H78.3254L83.4192 33.9441L78.6673 26.4923H84.9235L87.2823 30.7888L89.7438 26.4923Z" fill="#DC4FFF"/>
<path d="M40.1432 41.5972H39.562V18.1007H40.0406C41.0662 18.1007 42.2058 18.0895 43.4593 18.0671C43.9379 18.0671 44.4621 18.0671 45.0319 18.0671C45.6245 18.0448 46.0803 18.0336 46.3994 18.0336C46.7185 18.0112 46.9578 18 47.1173 18C51.6072 18 54.9689 19.0965 57.2024 21.2895C59.436 23.4825 60.5528 26.2685 60.5528 29.6476C60.5528 33.1161 59.3562 35.9916 56.9631 38.2741C54.5928 40.5343 51.2197 41.6643 46.8438 41.6643C45.955 41.6643 44.9635 41.6531 43.8696 41.6308C42.7756 41.6084 41.5335 41.5972 40.1432 41.5972ZM47.0489 23.035C46.1601 23.035 45.4877 23.0685 45.0319 23.1357V36.5622C45.6701 36.607 46.331 36.6294 47.0148 36.6294C49.4306 36.6294 51.3223 36.014 52.6898 34.7832C54.0573 33.5524 54.741 31.8406 54.741 29.6476C54.741 27.5664 54.0459 25.9441 52.6556 24.7804C51.2653 23.6168 49.3964 23.035 47.0489 23.035Z" fill="#773EF5"/>
<path d="M75.2724 36.7301L76.674 40.2881C75.1242 41.4294 73.13 42 70.6913 42C68.1843 42 66.1559 41.2727 64.606 39.8182C63.1018 38.3636 62.3497 36.4392 62.3497 34.0448C62.3497 31.7622 63.1132 29.8713 64.6402 28.372C66.19 26.8503 68.2071 26.0895 70.6913 26.0895C72.7197 26.0895 74.4747 26.7608 75.9561 28.1035C77.4147 29.4014 78.1441 31.1021 78.1441 33.2056C78.1441 34.2126 78.0415 35.0517 77.8364 35.7231H67.6487C68.1045 37.1105 69.301 37.8042 71.2383 37.8042C72.7425 37.8042 74.0872 37.4462 75.2724 36.7301ZM70.5204 30.2853C69.0162 30.2853 68.0019 30.979 67.4777 32.3664H73.016C73.016 31.7846 72.7881 31.2923 72.3323 30.8895C71.8765 30.4867 71.2725 30.2853 70.5204 30.2853Z" fill="#773EF5"/>
<path d="M89.7438 26.4923H95.6582L90.872 33.6755L96 41.5972H89.7438L87.0773 36.8308L84.2397 41.5972H78.3254L83.4193 33.9441L78.6673 26.4923H84.9235L87.2824 30.7888L89.7438 26.4923Z" fill="#773EF5"/>
</svg>
