<svg width="24" height="24" viewBox="0 0 24 24" fill="none" xmlns="http://www.w3.org/2000/svg">
<path d="M22.821 11.3404C21.7586 9.95925 20.4837 8.79056 19.1025 7.83436L16.1276 9.85301C16.0214 9.53428 15.8089 9.21554 15.5964 9.00305L8.1593 13.9965C8.37179 14.3153 8.58428 14.634 8.79677 14.8465L16.2339 9.85301C16.5526 10.4905 16.6589 11.1279 16.6589 11.7654C16.6589 14.3153 14.6402 16.3339 12.0903 16.3339C10.8154 16.3339 9.54048 15.8027 8.79677 14.8465L6.45939 16.4402C6.14065 16.2277 5.71567 16.1214 5.39694 15.9089L8.1593 13.9965C7.62808 13.3591 7.41559 12.6154 7.41559 11.7654C7.41559 9.21554 9.54048 7.1969 11.9841 7.1969C13.4715 7.1969 14.6402 7.83436 15.4902 8.89681L18.04 7.1969C16.2339 6.2407 14.109 5.70947 11.9841 5.70947C7.73432 5.70947 3.69703 7.83436 1.14716 11.2342C0.934671 11.4467 0.934671 11.8717 1.14716 12.0841C2.2096 13.5716 3.59078 14.8465 5.18445 15.8027C5.50318 16.0152 5.92816 16.2277 6.2469 16.3339C8.05305 17.1839 9.96546 17.6089 11.9841 17.6089C16.2339 17.6089 20.2712 15.484 22.821 12.0841C23.0335 11.8717 23.0335 11.5529 22.821 11.3404Z" fill="#A0A3BD"/>
<path d="M5.29058 15.8027C5.60932 16.0152 6.0343 16.2277 6.35303 16.334L1.35954 19.6275C1.25329 19.7338 1.14705 19.7338 1.0408 19.7338C0.828314 19.7338 0.722069 19.6275 0.615825 19.5213C0.403336 19.415 0.50958 19.0963 0.722069 18.8838L5.29058 15.8027Z" fill="#A0A3BD"/>
<path d="M15.4899 8.89685C15.7023 9.21558 15.9148 9.42807 16.0211 9.74681L8.58396 14.7403C8.37147 14.5278 8.15898 14.3153 8.05273 13.9966L15.4899 8.89685Z" fill="#A0A3BD"/>
<path d="M23.2455 4.96578L19.102 7.83438C18.8895 7.72814 18.7833 7.62189 18.5708 7.51565C18.3583 7.4094 18.252 7.30316 18.0396 7.19692L22.6081 4.11582C22.8206 3.90334 23.1393 4.00958 23.3518 4.22207C23.5643 4.5408 23.5643 4.85954 23.2455 4.96578Z" fill="#A0A3BD"/>
<path d="M16.1273 9.85301L8.6902 14.8465C8.37147 14.5278 8.15898 14.3153 8.05273 13.9965L15.4899 9.00305C15.8086 9.21554 15.9148 9.53427 16.1273 9.85301Z" fill="white"/>
<path d="M16.1273 9.85301L8.6902 14.8465C8.37147 14.5278 8.15898 14.3153 8.05273 13.9965L15.4899 9.00305C15.8086 9.21554 15.9148 9.53427 16.1273 9.85301Z" fill="white"/>
<path d="M16.1273 9.85301L8.6902 14.8465C8.47771 14.5278 8.26522 14.3153 8.05273 13.9965L15.4899 9.00305C15.7023 9.21554 15.9148 9.53427 16.1273 9.85301Z" fill="#A0A3BD"/>
</svg>
