<svg width="24" height="24" viewBox="0 0 24 24" fill="none" xmlns="http://www.w3.org/2000/svg">
<path d="M18.2045 0.399902H7.24939C5.53933 0.399902 4.1499 1.78933 4.1499 3.49939V3.60627C4.36366 3.49939 4.63086 3.49939 4.89806 3.49939H5.75309C5.75309 2.6978 6.4478 2.05652 7.24939 2.05652H18.2045C19.0061 2.05652 19.7008 2.6978 19.7008 3.55283V19.0503C19.7008 19.8519 19.0595 20.5466 18.2045 20.5466H18.151V21.2947C18.151 21.6154 18.0976 21.8826 17.9907 22.1498H18.2045C19.9145 22.1498 21.304 20.7603 21.304 19.0503V3.49939C21.304 1.78933 19.9145 0.399902 18.2045 0.399902Z" fill="#A0A3BD"/>
<path d="M15.8531 3.44604H4.898C4.6308 3.44604 4.3636 3.49948 4.14984 3.55292C3.24137 3.87356 2.6001 4.72859 2.6001 5.74394V21.2948C2.6001 22.5774 3.61545 23.5927 4.898 23.5927H15.8531C16.815 23.5927 17.67 23.0049 17.9907 22.1499C18.0975 21.8827 18.151 21.6155 18.151 21.2948V5.74394C18.151 4.46139 17.1356 3.44604 15.8531 3.44604ZM13.4483 14.0805H11.2039V16.325C11.2039 16.7525 10.8298 17.1265 10.4023 17.1265C9.97475 17.1265 9.60067 16.7525 9.60067 16.325V14.0805H7.35621C6.9287 14.0805 6.55462 13.7064 6.55462 13.2789C6.55462 12.8514 6.9287 12.4773 7.35621 12.4773H9.60067V10.2329C9.60067 9.80534 9.97475 9.43126 10.4023 9.43126C10.8298 9.43126 11.2039 9.80534 11.2039 10.2329V12.4773H13.4483C13.8758 12.4773 14.2499 12.8514 14.2499 13.2789C14.2499 13.7064 13.8758 14.0805 13.4483 14.0805Z" fill="#A0A3BD"/>
</svg>
