<svg width="32" height="32" viewBox="0 0 32 32" fill="none" xmlns="http://www.w3.org/2000/svg">
<path d="M15.9998 2.66663C8.64589 2.66663 2.6665 8.64601 2.6665 16C2.6665 23.3539 8.64589 29.3333 15.9998 29.3333C23.3538 29.3333 29.3332 23.3539 29.3332 16C29.3332 8.64601 23.3538 2.66663 15.9998 2.66663ZM21.8418 20.3986C22.2541 20.811 22.2541 21.4295 21.8418 21.8419C21.6356 22.0481 21.3607 22.1168 21.0857 22.1168C20.8108 22.1168 20.5359 22.0481 20.3297 21.8419L15.9311 17.4433L11.5325 21.8419C11.3263 22.0481 11.0514 22.1168 10.7765 22.1168C10.5016 22.1168 10.2266 22.0481 10.0205 21.8419C9.60808 21.4295 9.60808 20.811 10.0205 20.3986L14.4191 16L10.1579 11.6013C9.74554 11.189 9.74554 10.5704 10.1579 10.158C10.5703 9.74566 11.1888 9.74566 11.6012 10.158L15.9998 14.5567L20.3985 10.158C20.8108 9.74566 21.4294 9.74566 21.8418 10.158C22.2541 10.5704 22.2541 11.189 21.8418 11.6013L17.4431 16L21.8418 20.3986Z" fill="#FF4F79"/>
</svg>
