<svg width="80" height="80" viewBox="0 0 80 80" fill="none" xmlns="http://www.w3.org/2000/svg">
<path d="M40.0001 6.66675C49.0568 6.66675 50.1867 6.70008 53.7401 6.86675C57.2901 7.03341 59.7067 7.59008 61.8334 8.41675C64.0334 9.26342 65.8868 10.4101 67.7401 12.2601C69.4351 13.9264 70.7466 15.942 71.5834 18.1667C72.4068 20.2901 72.9668 22.7101 73.1334 26.2601C73.2901 29.8134 73.3334 30.9434 73.3334 40.0001C73.3334 49.0568 73.3001 50.1867 73.1334 53.7401C72.9668 57.2901 72.4068 59.7067 71.5834 61.8334C70.749 64.0593 69.4372 66.0755 67.7401 67.7401C66.0733 69.4345 64.0578 70.7459 61.8334 71.5834C59.7101 72.4068 57.2901 72.9668 53.7401 73.1334C50.1867 73.2901 49.0568 73.3334 40.0001 73.3334C30.9434 73.3334 29.8134 73.3001 26.2601 73.1334C22.7101 72.9668 20.2934 72.4068 18.1667 71.5834C15.9412 70.7483 13.9252 69.4366 12.2601 67.7401C10.5648 66.074 9.25319 64.0583 8.41675 61.8334C7.59008 59.7101 7.03341 57.2901 6.86675 53.7401C6.71008 50.1867 6.66675 49.0568 6.66675 40.0001C6.66675 30.9434 6.70008 29.8134 6.86675 26.2601C7.03341 22.7067 7.59008 20.2934 8.41675 18.1667C9.25087 15.9407 10.5628 13.9245 12.2601 12.2601C13.9257 10.5642 15.9415 9.25251 18.1667 8.41675C20.2934 7.59008 22.7067 7.03341 26.2601 6.86675C29.8134 6.71008 30.9434 6.66675 40.0001 6.66675ZM40.0001 23.3334C35.5798 23.3334 31.3406 25.0894 28.215 28.215C25.0894 31.3406 23.3334 35.5798 23.3334 40.0001C23.3334 44.4204 25.0894 48.6596 28.215 51.7852C31.3406 54.9108 35.5798 56.6668 40.0001 56.6668C44.4204 56.6668 48.6596 54.9108 51.7852 51.7852C54.9108 48.6596 56.6668 44.4204 56.6668 40.0001C56.6668 35.5798 54.9108 31.3406 51.7852 28.215C48.6596 25.0894 44.4204 23.3334 40.0001 23.3334ZM61.6668 22.5001C61.6668 21.395 61.2278 20.3352 60.4464 19.5538C59.665 18.7724 58.6052 18.3334 57.5001 18.3334C56.395 18.3334 55.3352 18.7724 54.5538 19.5538C53.7724 20.3352 53.3334 21.395 53.3334 22.5001C53.3334 23.6052 53.7724 24.665 54.5538 25.4464C55.3352 26.2278 56.395 26.6667 57.5001 26.6667C58.6052 26.6667 59.665 26.2278 60.4464 25.4464C61.2278 24.665 61.6668 23.6052 61.6668 22.5001ZM40.0001 30.0001C42.6522 30.0001 45.1958 31.0536 47.0712 32.929C48.9465 34.8044 50.0001 37.3479 50.0001 40.0001C50.0001 42.6522 48.9465 45.1958 47.0712 47.0712C45.1958 48.9465 42.6522 50.0001 40.0001 50.0001C37.3479 50.0001 34.8044 48.9465 32.929 47.0712C31.0536 45.1958 30.0001 42.6522 30.0001 40.0001C30.0001 37.3479 31.0536 34.8044 32.929 32.929C34.8044 31.0536 37.3479 30.0001 40.0001 30.0001Z" fill="#DC4FFF"/>
</svg>
