<svg width="24" height="24" viewBox="0 0 24 24" fill="none" xmlns="http://www.w3.org/2000/svg">
<path d="M17.789 1.40039H9.2387C7.10112 1.40039 5.39105 3.11045 5.39105 5.24803V8.13376L3.14659 10.3248C2.66563 10.7523 2.39844 11.3936 2.39844 12.1417C2.39844 12.783 2.66563 13.4243 3.14659 13.8518L5.33761 15.9359V18.7682C5.33761 20.9058 7.04768 22.6159 9.18526 22.6159H17.7356C19.8731 22.6159 21.5832 20.9058 21.5832 18.7682V5.24803C21.5832 3.11045 19.8731 1.40039 17.789 1.40039ZM15.2239 12.783H6.78048L8.91806 14.7603C9.23869 15.0809 9.2387 15.5618 8.9715 15.8825C8.81118 16.0428 8.59742 16.1497 8.38366 16.1497C8.16991 16.1497 8.00959 16.0962 7.84927 15.9359L4.26882 12.6227C4.1085 12.4624 4.00162 12.2486 4.00162 12.0348C4.00162 11.8211 4.1085 11.6073 4.26882 11.447L7.74238 8.02688C8.06302 7.70624 8.54398 7.70624 8.86461 8.02688C9.18525 8.34752 9.18525 8.82847 8.86461 9.14911L6.83392 11.1264H15.2239C15.6514 11.1264 16.0255 11.5004 16.0255 11.928C16.0255 12.4089 15.6514 12.783 15.2239 12.783Z" fill="#A0A3BD"/>
</svg>
