<svg width="24" height="24" viewBox="0 0 24 24" fill="none" xmlns="http://www.w3.org/2000/svg">
<path d="M17.6529 4.66101H7.28563C6.85812 4.66101 6.48404 4.28694 6.48404 3.85942C6.48404 3.4319 6.85812 3.05783 7.28563 3.05783H18.1873C19.737 3.05783 19.8973 0.706488 18.1873 0.599609C18.0804 0.599609 6.96499 0.599609 6.96499 0.599609C5.57557 0.599609 4.3999 1.72184 4.3999 3.1647V17.1431C4.3999 18.3188 5.20149 19.3341 6.27028 19.6013V22.6474C6.27028 22.968 6.4306 23.2352 6.6978 23.3421C6.96499 23.5024 7.28563 23.449 7.55283 23.2886L8.88882 22.3802L10.2248 23.2886C10.3851 23.3955 10.5454 23.449 10.7058 23.449C10.8126 23.449 10.973 23.3955 11.0798 23.3421C11.347 23.1818 11.5073 22.9146 11.5073 22.6474V19.7082H16.9047C18.2942 19.7082 19.4698 18.586 19.4698 17.1431V6.37107C19.4164 5.40916 18.6682 4.66101 17.6529 4.66101ZM9.90416 21.0442L9.36977 20.6701C9.20945 20.5632 9.04914 20.5098 8.88882 20.5098C8.7285 20.5098 8.56818 20.5632 8.40786 20.6701L7.87347 21.0442V19.6548H9.85073V21.0442H9.90416Z" fill="#A0A3BD"/>
</svg>
