<svg width="24" height="24" viewBox="0 0 24 24" fill="none" xmlns="http://www.w3.org/2000/svg">
<path d="M17.0908 1.7002H6.9907C4.05153 1.7002 1.7002 4.10497 1.7002 6.9907V17.0908C1.7002 20.0299 4.10497 22.3813 6.9907 22.3813H17.0908C20.0299 22.3813 22.3813 20.0299 22.3813 17.0908V6.9907C22.3813 4.05153 20.0299 1.7002 17.0908 1.7002ZM8.80764 16.877C8.80764 17.3045 8.43357 17.6786 8.00605 17.6786C7.57854 17.6786 7.20446 17.3045 7.20446 16.877V9.92987C7.20446 9.50235 7.57854 9.12828 8.00605 9.12828C8.43357 9.12828 8.80764 9.50235 8.80764 9.92987V16.877ZM12.8156 16.877C12.8156 17.3045 12.4415 17.6786 12.014 17.6786C11.5865 17.6786 11.2124 17.3045 11.2124 16.877V7.20445C11.2124 6.77694 11.5865 6.40286 12.014 6.40286C12.4415 6.40286 12.8156 6.77694 12.8156 7.20445V16.877ZM16.877 16.877C16.877 17.3045 16.5029 17.6786 16.0754 17.6786C15.6479 17.6786 15.2738 17.3045 15.2738 16.877V12.014C15.2738 11.5865 15.6479 11.2124 16.0754 11.2124C16.5029 11.2124 16.877 11.5865 16.877 12.014V16.877Z" fill="#A0A3BD"/>
</svg>
