<svg width="24" height="24" viewBox="0 0 24 24" fill="none" xmlns="http://www.w3.org/2000/svg">
<path d="M17.2646 1.40039H6.79051C3.85134 1.40039 1.5 3.75173 1.5 6.6909V17.2185C1.5 20.1576 3.85134 22.509 6.79051 22.509H17.4784C20.471 22.509 22.5551 20.1042 22.5551 17.1116V6.6909C22.5551 3.80517 20.1504 1.40039 17.2646 1.40039ZM18.9747 16.8444C18.9747 17.8063 18.1731 18.6079 17.2646 18.6079H17.1043C16.1424 18.6079 15.3943 17.8063 15.3943 16.8978V13.4243C15.3943 12.4624 16.1958 11.7142 17.1043 11.7142H17.2646C17.3181 11.7142 17.3715 11.7142 17.3715 11.7142V11.447C17.3715 10.111 16.7837 8.82847 15.7683 7.86657C14.6995 6.90465 13.3101 6.37026 11.8673 6.37026C8.82121 6.37026 6.36299 8.66816 6.36299 11.447V11.7142C6.41643 11.7142 6.46987 11.7142 6.46987 11.7142H6.63019C7.5921 11.7142 8.34025 12.5158 8.34025 13.4243V16.8978C8.34025 17.8597 7.53866 18.6079 6.63019 18.6079H6.46987C5.50796 18.6079 4.75981 17.8063 4.75981 16.8978V16.791C4.06509 16.5238 3.58414 15.829 3.58414 15.0809C3.58414 14.3327 4.06509 13.638 4.75981 13.3708V11.5004C4.75981 7.81313 7.96617 4.82052 11.8673 4.82052C13.7376 4.82052 15.5546 5.51523 16.8906 6.74434C18.2266 8.02688 18.9747 9.68351 18.9747 11.5004V13.3174C19.8297 13.5311 20.471 14.2793 20.471 15.1343C20.471 15.9894 19.8297 16.6306 18.9747 16.8444Z" fill="#A0A3BD"/>
</svg>
