<svg width="24" height="24" viewBox="0 0 24 24" fill="none" xmlns="http://www.w3.org/2000/svg">
<path d="M23.0773 9.22752V14.4111H0.899902V9.22752C0.899902 7.08994 2.60997 5.37988 4.74754 5.37988H19.2296C21.3672 5.37988 23.0773 7.08994 23.0773 9.22752Z" fill="#773EF5"/>
<path d="M0.899902 16.0146V18.366C0.899902 20.5036 2.60997 22.2136 4.74754 22.2136H19.2296C21.3672 22.2136 23.0773 20.5036 23.0773 18.366V16.0146H0.899902ZM13.8323 19.6485H9.98461C9.55709 19.6485 9.18302 19.2745 9.18302 18.8469C9.18302 18.4194 9.55709 18.0453 9.98461 18.0453H13.8323C14.2598 18.0453 14.6338 18.4194 14.6338 18.8469C14.6338 19.2745 14.3132 19.6485 13.8323 19.6485Z" fill="#773EF5"/>
<path d="M15.0615 1.7998H8.86249C7.57994 1.7998 6.51115 2.8686 6.51115 4.15115V5.38025H8.11434V4.15115C8.11434 3.72363 8.43497 3.40299 8.86249 3.40299H15.008C15.4355 3.40299 15.7562 3.72363 15.7562 4.15115V5.38025H17.3594V4.15115C17.3594 2.8686 16.344 1.7998 15.0615 1.7998Z" fill="#773EF5"/>
</svg>
