<svg width="24" height="24" viewBox="0 0 24 24" fill="none" xmlns="http://www.w3.org/2000/svg">
<path d="M13.5101 12.121C13.5101 12.9761 12.8154 13.6708 11.9604 13.6708C11.1053 13.6708 10.4106 12.9761 10.4106 12.121C10.4106 11.266 11.1053 10.5713 11.9604 10.5713C12.8154 10.5713 13.5101 11.266 13.5101 12.121Z" fill="#A0A3BD"/>
<path d="M17.0908 1.7002H6.9907C4.05153 1.7002 1.7002 4.05153 1.7002 6.9907V17.0908C1.7002 20.0299 4.05153 22.3813 6.9907 22.3813H17.0908C20.0299 22.3813 22.3813 20.0299 22.3813 17.0908V6.9907C22.3813 4.05153 20.0299 1.7002 17.0908 1.7002ZM17.7855 20.0834C16.5564 20.3506 15.4876 19.4421 15.4876 18.2664C15.4876 17.9992 15.541 17.732 15.6479 17.5183L13.5103 14.8463C13.0294 15.1135 12.495 15.2738 11.9606 15.2738C11.8003 15.2738 11.6399 15.2738 11.5331 15.2204L10.678 17.1442C10.7849 17.358 10.8918 17.6252 10.8918 17.8389C10.8918 18.7474 10.0902 19.4421 9.18172 19.2818C8.59388 19.1749 8.11293 18.6939 8.00605 18.0527C7.89917 17.1976 8.48701 16.5029 9.2886 16.396L10.0902 14.5791C9.44892 14.0981 9.0214 13.35 8.91452 12.5484L6.7235 12.495C6.40287 12.9759 5.76159 13.2431 5.12032 13.0828C4.6928 12.9759 4.31873 12.6018 4.15841 12.1743C3.83777 11.159 4.58593 10.2505 5.54784 10.2505C6.08223 10.2505 6.50975 10.5177 6.77694 10.9452L9.12828 10.9987C9.60923 9.82299 10.7315 9.0214 12.0674 9.0214C12.495 9.0214 12.869 9.07484 13.1897 9.23516L15.1135 6.34943C14.9532 6.08223 14.8463 5.76159 14.8463 5.38752C14.8463 4.21185 15.9151 3.30338 17.1442 3.57058C17.8389 3.73089 18.3733 4.26529 18.5336 4.96C18.8008 6.18911 17.8924 7.2579 16.7167 7.2579C16.6098 7.2579 16.5564 7.2579 16.4495 7.2579L14.4722 10.1971C14.8997 10.7315 15.1669 11.4262 15.1669 12.1743C15.1669 12.7622 15.0066 13.2966 14.7394 13.7775L16.9839 16.5564C17.1442 16.5029 17.3045 16.5029 17.4648 16.5029C18.6405 16.5029 19.549 17.5717 19.2818 18.8008C19.0146 19.3352 18.4802 19.923 17.7855 20.0834Z" fill="#A0A3BD"/>
</svg>
