<svg width="24" height="24" viewBox="0 0 24 24" fill="none" xmlns="http://www.w3.org/2000/svg">
<path d="M23.3333 11.7778C20.6667 8.11111 16.4444 6 12 6C7.55556 6 3.33333 8.22222 0.666667 11.7778C0.444444 12 0.444444 12.4444 0.666667 12.6667C3.33333 16.3333 7.55556 18.4444 12 18.4444C16.4444 18.4444 20.6667 16.2222 23.3333 12.6667C23.5556 12.4444 23.5556 12.1111 23.3333 11.7778ZM12 17.1111C9.33333 17.1111 7.22222 15 7.22222 12.3333C7.22222 9.66667 9.33333 7.55556 12 7.55556C14.6667 7.55556 16.7778 9.66667 16.7778 12.3333C16.7778 15 14.6667 17.1111 12 17.1111Z" fill="#A0A3BD"/>
</svg>
