<svg width="24" height="24" viewBox="0 0 24 24" fill="none" xmlns="http://www.w3.org/2000/svg">
<path d="M19.9755 14.2648C21.2581 14.2648 22.3268 13.196 22.3268 11.9134C22.3268 10.6309 21.2581 9.56209 19.9755 9.56209C19.8686 9.56209 19.7617 9.56209 19.6549 9.56209C19.4945 9.02769 19.2808 8.54674 19.067 8.11922C19.1739 8.06578 19.2274 7.9589 19.3342 7.90547C20.2427 6.99699 20.2427 5.50069 19.3342 4.59222C18.4258 3.68375 16.9295 3.68375 16.021 4.59222C15.9141 4.6991 15.8607 4.75254 15.8072 4.85942C15.3263 4.59222 14.8453 4.4319 14.3644 4.27158C14.3644 4.1647 14.3644 4.05782 14.3644 3.95095C14.3644 2.6684 13.2956 1.59961 12.013 1.59961C10.7305 1.59961 9.66169 2.6684 9.66169 3.95095C9.66169 4.05782 9.66169 4.1647 9.66169 4.27158C9.1273 4.4319 8.64634 4.64566 8.21882 4.85942C8.16538 4.75254 8.05851 4.6991 8.00507 4.59222C7.0966 3.68375 5.60029 3.68375 4.69182 4.59222C3.78334 5.50069 3.78334 6.99699 4.69182 7.90547C4.79869 8.01234 4.85213 8.06578 4.95901 8.11922C4.69182 8.60018 4.53151 9.08113 4.37119 9.56209C4.26431 9.56209 4.15743 9.56209 4.05055 9.56209C2.768 9.56209 1.69922 10.6309 1.69922 11.9134C1.69922 13.196 2.768 14.2648 4.05055 14.2648C4.15743 14.2648 4.26431 14.2648 4.37119 14.2648C4.53151 14.7992 4.74525 15.2801 4.95901 15.7076C4.85213 15.7611 4.79869 15.8679 4.69182 15.9214C3.78334 16.8299 3.78334 18.3262 4.69182 19.2346C5.60029 20.1431 7.0966 20.1431 8.00507 19.2346C8.11195 19.1278 8.16538 19.0743 8.21882 18.9674C8.69978 19.2346 9.18074 19.3949 9.66169 19.5553C9.66169 19.6621 9.66169 19.769 9.66169 19.8759C9.66169 21.1585 10.7305 22.2272 12.013 22.2272C13.2956 22.2272 14.3644 21.1585 14.3644 19.8759C14.3644 19.769 14.3644 19.6621 14.3644 19.5553C14.8988 19.3949 15.3797 19.1812 15.8072 18.9674C15.8607 19.0743 15.9675 19.1278 16.021 19.2346C16.9295 20.1431 18.4258 20.1431 19.3342 19.2346C20.2427 18.3262 20.2427 16.8299 19.3342 15.9214C19.2274 15.8145 19.1739 15.7611 19.067 15.7076C19.3342 15.2267 19.4945 14.7457 19.6549 14.2648C19.7083 14.2648 19.8152 14.2648 19.9755 14.2648ZM11.9596 17.3108C9.02041 17.3108 6.61564 14.906 6.61564 11.9669C6.61564 8.97426 9.02041 6.56948 11.9596 6.56948C14.8988 6.56948 17.357 8.97426 17.357 11.9669C17.3035 14.906 14.8988 17.3108 11.9596 17.3108Z" fill="#A0A3BD"/>
</svg>
