<svg width="32" height="32" viewBox="0 0 32 32" fill="none" xmlns="http://www.w3.org/2000/svg">
<path d="M15.9016 2.93335C8.77631 2.93335 2.93359 8.7048 2.93359 15.9013V25.9479C2.93359 27.5867 4.28739 28.8693 5.85495 28.8693H15.9016C23.0981 28.8693 28.8695 23.0266 28.8695 15.9013C28.8695 8.77605 23.0981 2.93335 15.9016 2.93335ZM20.7467 18.2527C20.1055 18.2527 19.678 17.8251 19.6067 17.2551L19.3929 13.9062L11.8402 21.459C11.6264 21.6728 11.3414 21.744 11.0564 21.744C10.7714 21.744 10.4864 21.6015 10.2726 21.459C9.8451 21.0315 9.8451 20.3902 10.2726 19.9627L17.8966 12.3387L14.4765 12.1962C13.9065 12.1962 13.4077 11.6974 13.479 11.1274C13.479 10.5574 13.9777 10.0586 14.5478 10.1299L20.3905 10.3436C20.9605 10.3436 21.388 10.7711 21.388 11.3411L21.7443 17.1839C21.8155 17.6826 21.388 18.1814 20.7467 18.2527Z" fill="#773EF5"/>
</svg>
