<svg width="32" height="32" viewBox="0 0 32 32" fill="none" xmlns="http://www.w3.org/2000/svg">
<path d="M16.0001 2.66663C8.64613 2.66663 2.66675 8.64601 2.66675 16C2.66675 23.3539 8.64613 29.3333 16.0001 29.3333C23.354 29.3333 29.3334 23.3539 29.3334 16C29.2647 8.64601 23.354 2.66663 16.0001 2.66663ZM22.8729 12.701L15.1066 21.7732C14.9004 21.9793 14.6255 22.1168 14.3506 22.1168C14.0757 22.1168 13.732 21.9793 13.5946 21.7732L8.92104 16.4123C8.5774 16 8.5774 15.3127 9.0585 14.969C9.5396 14.6254 10.1582 14.6254 10.5018 15.1065L14.3506 19.5738L21.3609 11.3951C21.7045 10.9828 22.3918 10.914 22.8042 11.2577C23.2166 11.6013 23.2166 12.2886 22.8729 12.701Z" fill="#3DCAB0"/>
</svg>
