<svg width="80" height="80" viewBox="0 0 80 80" fill="none" xmlns="http://www.w3.org/2000/svg">
<path d="M40.0001 73.3334C21.5901 73.3334 6.66675 58.4101 6.66675 40.0001C6.66675 21.5901 21.5901 6.66675 40.0001 6.66675C58.4101 6.66675 73.3334 21.5901 73.3334 40.0001C73.3334 58.4101 58.4101 73.3334 40.0001 73.3334ZM29.6334 43.9001L29.6767 43.8768L32.5767 53.4434C32.9501 54.4801 33.4634 54.6668 34.0867 54.5801C34.7134 54.4968 35.0434 54.1601 35.4534 53.7667L39.4134 49.9401L47.9134 56.2334C49.4667 57.0901 50.5834 56.6467 50.9701 54.7934L56.4934 28.7201C57.1034 26.2934 56.0368 25.3201 54.1534 26.0934L21.7101 38.6268C19.4967 39.5134 19.5101 40.7534 21.3101 41.3034L29.6334 43.9034V43.9001Z" fill="#773EF5"/>
</svg>
