<svg width="32" height="32" viewBox="0 0 32 32" fill="none" xmlns="http://www.w3.org/2000/svg">
<path d="M16.0001 2.6665C8.64613 2.6665 2.66675 8.64589 2.66675 15.9998C2.66675 23.3538 8.64613 29.3332 16.0001 29.3332C23.354 29.3332 29.3334 23.3538 29.3334 15.9998C29.3334 8.64589 23.354 2.6665 16.0001 2.6665ZM17.031 22.6665C17.031 22.7352 17.031 22.804 16.9623 22.8727C16.9623 22.9414 16.8935 23.0101 16.8935 23.0789C16.8248 23.1476 16.8248 23.2163 16.7561 23.2163C16.6874 23.2851 16.6874 23.2851 16.6186 23.3538C16.5499 23.3538 16.4812 23.4225 16.4125 23.4225C16.3437 23.4225 16.275 23.4912 16.2063 23.4912C16.1375 23.4912 16.0688 23.4912 16.0001 23.4912C15.9314 23.4912 15.8626 23.4912 15.7939 23.4912C15.7252 23.4912 15.6564 23.4912 15.5877 23.4225C15.519 23.4225 15.4503 23.3538 15.3815 23.3538C15.3128 23.2851 15.2441 23.2851 15.2441 23.2163C15.1753 23.1476 15.1753 23.0789 15.1066 23.0789C15.1066 23.0101 15.0379 22.9414 15.0379 22.8727C15.0379 22.804 14.9692 22.7352 14.9692 22.6665C14.9692 22.5978 14.9692 22.529 14.9692 22.4603C14.9692 22.1854 15.1066 21.9105 15.2441 21.7043C15.6564 21.2919 16.3437 21.2919 16.6874 21.7043C16.8936 21.9105 16.9623 22.1854 16.9623 22.4603C17.031 22.529 17.031 22.5978 17.031 22.6665ZM17.031 17.8555C17.031 18.4053 16.5499 18.8864 16.0001 18.8864C15.4503 18.8864 14.9692 18.4053 14.9692 17.8555V9.95173C14.9692 9.4019 15.4503 8.9208 16.0001 8.9208C16.5499 8.9208 17.031 9.4019 17.031 9.95173V17.8555Z" fill="#FF4F79"/>
</svg>
